# Blender v2.79 (sub 0) OBJ File: ''
# www.blender.org
mtllib door.mtl
o Door_Cube.001
v -3.958136 -6.869709 0.707641
v -3.958136 6.869709 0.707641
v -3.958136 -6.869709 -0.707641
v -3.958136 6.869709 -0.707641
v 3.958136 -6.869709 0.707641
v 3.958136 6.869709 0.707641
v 3.958136 -6.869709 -0.707641
v 3.958136 6.869709 -0.707641
v 3.245276 -6.869709 -0.707641
v 2.525615 -6.869709 -0.707641
v 1.805953 -6.869709 -0.707641
v 1.086292 -6.869709 -0.707641
v 0.366631 -6.869709 -0.707641
v -0.353030 -6.869709 -0.707641
v -1.072691 -6.869709 -0.707641
v -1.792353 -6.869709 -0.707641
v -2.512013 -6.869709 -0.707641
v -3.231675 -6.869709 -0.707641
v -3.231675 6.869709 -0.707641
v -2.512013 6.869709 -0.707641
v -1.792352 6.869709 -0.707641
v -1.072691 6.869709 -0.707641
v -0.353030 6.869709 -0.707641
v 0.366631 6.869709 -0.707641
v 1.086292 6.869709 -0.707641
v 1.805953 6.869709 -0.707641
v 2.525615 6.869709 -0.707641
v 3.245276 6.869709 -0.707641
v -3.231675 -6.869709 0.707641
v -2.512013 -6.869709 0.707641
v -1.792352 -6.869709 0.707641
v -1.072691 -6.869709 0.707641
v -0.353030 -6.869709 0.707641
v 0.366631 -6.869709 0.707641
v 1.086292 -6.869709 0.707641
v 1.805953 -6.869709 0.707641
v 2.525615 -6.869709 0.707641
v 3.245276 -6.869709 0.707641
v 3.245276 6.869709 0.707641
v 2.525615 6.869709 0.707641
v 1.805953 6.869709 0.707641
v 1.086292 6.869709 0.707641
v 0.366631 6.869709 0.707641
v -0.353030 6.869709 0.707641
v -1.072691 6.869709 0.707641
v -1.792353 6.869709 0.707641
v -2.512013 6.869709 0.707641
v -3.231675 6.869709 0.707641
v -3.958136 -6.179917 0.707641
v -3.958136 -5.525659 0.707641
v -3.958136 -4.871401 0.707641
v -3.958136 -4.217143 0.707641
v -3.958136 -3.562885 0.707641
v -3.958136 -2.908627 0.707641
v -3.958136 -2.254369 0.707641
v -3.958136 -1.600111 0.707641
v -3.958136 -0.945852 0.707641
v -3.958136 -0.291594 0.707641
v -3.958136 0.362664 0.707641
v -3.958136 1.016922 0.707641
v -3.958136 1.671180 0.707641
v -3.958136 2.325438 0.707641
v -3.958136 2.979696 0.707641
v -3.958136 3.633954 0.707641
v -3.958136 4.288212 0.707641
v -3.958136 4.942470 0.707641
v -3.958136 5.596728 0.707641
v -3.958136 6.250986 0.707641
v -3.958136 6.250986 -0.707641
v -3.958136 5.596728 -0.707641
v -3.958136 4.942470 -0.707641
v -3.958136 4.288212 -0.707641
v -3.958136 3.633954 -0.707641
v -3.958136 2.979696 -0.707641
v -3.958136 2.325438 -0.707641
v -3.958136 1.671180 -0.707641
v -3.958136 1.016922 -0.707641
v -3.958136 0.362664 -0.707641
v -3.958136 -0.291594 -0.707641
v -3.958136 -0.945852 -0.707641
v -3.958136 -1.600110 -0.707641
v -3.958136 -2.254368 -0.707641
v -3.958136 -2.908626 -0.707641
v -3.958136 -3.562884 -0.707641
v -3.958136 -4.217142 -0.707641
v -3.958136 -4.871400 -0.707641
v -3.958136 -5.525658 -0.707641
v -3.958136 -6.179917 -0.707641
v 3.958136 6.250986 -0.707641
v 3.958136 5.596728 -0.707641
v 3.958136 4.942470 -0.707641
v 3.958136 4.288212 -0.707641
v 3.958136 3.633954 -0.707641
v 3.958136 2.979696 -0.707641
v 3.958136 2.325438 -0.707641
v 3.958136 1.671180 -0.707641
v 3.958136 1.016922 -0.707641
v 3.958136 0.362664 -0.707641
v 3.958136 -0.291594 -0.707641
v 3.958136 -0.945852 -0.707641
v 3.958136 -1.600110 -0.707641
v 3.958136 -2.254368 -0.707641
v 3.958136 -2.908626 -0.707641
v 3.958136 -3.562884 -0.707641
v 3.958136 -4.217142 -0.707641
v 3.958136 -4.871400 -0.707641
v 3.958136 -5.525658 -0.707641
v 3.958136 -6.179917 -0.707641
v 3.958136 6.250986 0.707641
v 3.958136 5.596728 0.707641
v 3.958136 4.942470 0.707641
v 3.958136 4.288212 0.707641
v 3.958136 3.633954 0.707641
v 3.958136 2.979696 0.707641
v 3.958136 2.325438 0.707641
v 3.958136 1.671180 0.707641
v 3.958136 1.016922 0.707641
v 3.958136 0.362664 0.707641
v 3.958136 -0.291594 0.707641
v 3.958136 -0.945852 0.707641
v 3.958136 -1.600110 0.707641
v 3.958136 -2.254368 0.707641
v 3.958136 -2.908626 0.707641
v 3.958136 -3.562884 0.707641
v 3.958136 -4.217142 0.707641
v 3.958136 -4.871400 0.707641
v 3.958136 -5.525658 0.707641
v 3.958136 -6.179917 0.707641
v 3.245276 6.250986 0.707641
v 3.245276 5.596728 0.707641
v 3.245276 4.942470 0.707641
v 3.245276 4.288212 0.707641
v 3.245276 3.633954 0.707641
v 3.245276 2.979696 0.707641
v 3.245276 2.325438 0.707641
v 3.245276 1.671180 0.707641
v 3.245276 1.016922 0.707641
v 3.245276 0.362664 0.707641
v 3.245276 -0.291594 0.707641
v 3.245276 -0.945852 0.707641
v 3.245276 -1.600110 0.707641
v 3.245276 -2.254368 0.707641
v 3.245276 -2.908626 0.707641
v 3.245276 -3.562884 0.707641
v 3.245276 -4.217142 0.707641
v 3.245276 -4.871400 0.707641
v 3.245276 -5.525658 0.707641
v 3.245276 -6.179917 0.707641
v 2.525615 6.250986 0.707641
v 2.525615 -6.179917 0.707641
v 1.805953 6.250986 0.707641
v 1.805953 -6.179917 0.707641
v 1.086292 6.250986 0.707641
v 1.086292 -6.179917 0.707641
v 0.366631 6.250986 0.707641
v 0.366631 -6.179917 0.707641
v -0.353030 6.250986 0.707641
v -3.958136 6.250986 0.000000
v -3.958136 5.596728 0.000000
v -3.958136 4.942470 0.000000
v -3.958136 4.288212 0.000000
v -3.958136 3.633954 0.000000
v -3.958136 2.979696 0.000000
v -3.958136 2.325438 0.000000
v -3.958136 1.671180 0.000000
v -3.958136 1.016922 0.000000
v -3.958136 0.362664 0.000000
v -0.353030 -6.179917 0.707641
v -1.072691 6.250986 0.707641
v -3.958136 -0.291594 0.000000
v -3.958136 -0.945852 0.000000
v -3.958136 -1.600111 0.000000
v -3.958136 -2.254369 0.000000
v -3.958136 -2.908627 0.000000
v -3.958136 -3.562884 0.000000
v -3.958136 -4.217142 0.000000
v -3.958136 -4.871400 0.000000
v -3.958136 -5.525658 0.000000
v -3.958136 -6.179917 0.000000
v 3.958136 6.250986 0.000000
v 3.958136 5.596728 0.000000
v 3.958136 4.942470 0.000000
v 3.958136 4.288212 0.000000
v 3.958136 3.633954 0.000000
v 3.958136 2.979696 0.000000
v 3.958136 2.325438 0.000000
v 3.958136 1.671180 0.000000
v -1.072691 -6.179917 0.707641
v -1.792353 6.250986 0.707641
v 3.958136 1.016922 0.000000
v 3.958136 0.362664 0.000000
v 3.958136 -0.291594 0.000000
v 3.958136 -0.945852 0.000000
v 3.958136 -1.600110 0.000000
v 3.958136 -2.254368 0.000000
v 3.958136 -2.908626 0.000000
v 3.958136 -3.562884 0.000000
v 3.958136 -4.217142 0.000000
v 3.958136 -4.871400 0.000000
v 3.958136 -5.525658 0.000000
v 3.958136 -6.179917 0.000000
v 3.245276 -6.869709 0.000000
v 2.525615 -6.869709 0.000000
v 1.805953 -6.869709 0.000000
v 1.086292 -6.869709 0.000000
v 0.366631 -6.869709 0.000000
v -0.353030 -6.869709 0.000000
v -1.792353 -6.179917 0.707641
v -2.512013 6.250986 0.707641
v -1.072691 -6.869709 0.000000
v -1.792353 -6.869709 0.000000
v -2.512013 -6.869709 0.000000
v -3.231675 -6.869709 0.000000
v -3.231675 6.869709 0.000000
v -2.512013 6.869709 0.000000
v -1.792353 6.869709 0.000000
v -1.072691 6.869709 0.000000
v -0.353030 6.869709 0.000000
v 0.366631 6.869709 0.000000
v 1.086292 6.869709 0.000000
v 1.805953 6.869709 0.000000
v 2.525615 6.869709 0.000000
v 3.245276 6.869709 0.000000
v 3.958136 6.869709 0.000000
v 3.958136 -6.869709 0.000000
v -3.958136 6.869709 0.000000
v -3.958136 -6.869709 0.000000
v -2.512013 -6.179917 0.707641
v -3.231675 6.250986 0.707641
v -3.231675 5.596728 0.707641
v -3.231675 4.942470 0.707641
v -3.231675 4.288212 0.707641
v -3.231675 3.633954 0.707641
v -3.231675 2.979696 0.707641
v -3.231675 2.325438 0.707641
v -3.231675 1.671180 0.707641
v -3.231675 1.016922 0.707641
v -3.231675 0.362664 0.707641
v -3.231675 -0.291594 0.707641
v -3.231675 -0.945852 0.707641
v -3.231675 -1.600110 0.707641
v -3.231675 -2.254368 0.707641
v -3.231675 -2.908626 0.707641
v -3.231675 -3.562884 0.707641
v -3.231675 -4.217142 0.707641
v -3.231675 -4.871400 0.707641
v -3.231675 -5.525658 0.707641
v -3.231675 -6.179917 0.707641
v -3.231675 6.250986 -0.707641
v -3.231675 5.596728 -0.707641
v -3.231675 4.942470 -0.707641
v -3.231675 4.288212 -0.707641
v -3.231675 3.633954 -0.707641
v -3.231675 2.979696 -0.707641
v -3.231675 2.325438 -0.707641
v -3.231675 1.671180 -0.707641
v -3.231675 1.016922 -0.707641
v -3.231675 0.362664 -0.707641
v -3.231675 -0.291594 -0.707641
v -3.231675 -0.945852 -0.707641
v -3.231675 -1.600110 -0.707641
v -3.231675 -2.254368 -0.707641
v -3.231675 -2.908626 -0.707641
v -3.231675 -3.562884 -0.707641
v -3.231675 -4.217142 -0.707641
v -3.231675 -4.871400 -0.707641
v -3.231675 -5.525658 -0.707641
v -3.231675 -6.179917 -0.707641
v -2.512013 6.250986 -0.707641
v -2.512013 -6.179917 -0.707641
v -1.792352 6.250986 -0.707641
v -1.792353 -6.179917 -0.707641
v -1.072691 6.250986 -0.707641
v -1.072691 -6.179917 -0.707641
v -0.353030 6.250986 -0.707641
v -0.353030 -6.179917 -0.707641
v 0.366631 6.250986 -0.707641
v 0.366631 -6.179917 -0.707641
v 1.086292 6.250986 -0.707641
v 1.086292 -6.179917 -0.707641
v 1.805953 6.250986 -0.707641
v 1.805953 -6.179917 -0.707641
v 2.525615 6.250986 -0.707641
v 2.525615 -6.179917 -0.707641
v 3.245276 6.250986 -0.707641
v 3.245276 5.596728 -0.707641
v 3.245276 4.942470 -0.707641
v 3.245276 4.288212 -0.707641
v 3.245276 3.633954 -0.707641
v 3.245276 2.979696 -0.707641
v 3.245276 2.325438 -0.707641
v 3.245276 1.671180 -0.707641
v 3.245276 1.016922 -0.707641
v 3.245276 0.362664 -0.707641
v 3.245276 -0.291594 -0.707641
v 3.245276 -0.945852 -0.707641
v 3.245276 -1.600110 -0.707641
v 3.245276 -2.254368 -0.707641
v 3.245276 -2.908626 -0.707641
v 3.245276 -3.562884 -0.707641
v 3.245276 -4.217142 -0.707641
v 3.245276 -4.871400 -0.707641
v 3.245276 -5.525658 -0.707641
v 3.245276 -6.179917 -0.707641
vn -1.0000 0.0000 0.0000
vn 0.0000 0.0000 -1.0000
vn 1.0000 0.0000 0.0000
vn 0.0000 0.0000 1.0000
vn 0.0000 -1.0000 0.0000
vn 0.0000 1.0000 0.0000
usemtl None
s off
f 158//1 226//1 4//1 69//1
f 285//2 28//2 8//2 89//2
f 180//3 224//3 6//3 109//3
f 229//4 48//4 2//4 68//4
f 202//5 225//5 5//5 38//5
f 214//6 226//6 2//6 48//6
f 224//6 223//6 39//6 6//6
f 223//6 222//6 40//6 39//6
f 222//6 221//6 41//6 40//6
f 221//6 220//6 42//6 41//6
f 220//6 219//6 43//6 42//6
f 219//6 218//6 44//6 43//6
f 218//6 217//6 45//6 44//6
f 217//6 216//6 46//6 45//6
f 216//6 215//6 47//6 46//6
f 215//6 214//6 48//6 47//6
f 227//5 213//5 29//5 1//5
f 213//5 212//5 30//5 29//5
f 212//5 211//5 31//5 30//5
f 211//5 210//5 32//5 31//5
f 210//5 207//5 33//5 32//5
f 207//5 206//5 34//5 33//5
f 206//5 205//5 35//5 34//5
f 205//5 204//5 36//5 35//5
f 204//5 203//5 37//5 36//5
f 203//5 202//5 38//5 37//5
f 109//4 6//4 39//4 129//4
f 129//4 39//4 40//4 149//4
f 149//4 40//4 41//4 151//4
f 151//4 41//4 42//4 153//4
f 153//4 42//4 43//4 155//4
f 155//4 43//4 44//4 157//4
f 157//4 44//4 45//4 169//4
f 169//4 45//4 46//4 189//4
f 189//4 46//4 47//4 209//4
f 209//4 47//4 48//4 229//4
f 69//2 4//2 19//2 249//2
f 249//2 19//2 20//2 269//2
f 269//2 20//2 21//2 271//2
f 271//2 21//2 22//2 273//2
f 273//2 22//2 23//2 275//2
f 275//2 23//2 24//2 277//2
f 277//2 24//2 25//2 279//2
f 279//2 25//2 26//2 281//2
f 281//2 26//2 27//2 283//2
f 283//2 27//2 28//2 285//2
f 10//2 284//2 304//2 9//2
f 11//2 282//2 284//2 10//2
f 12//2 280//2 282//2 11//2
f 13//2 278//2 280//2 12//2
f 14//2 276//2 278//2 13//2
f 15//2 274//2 276//2 14//2
f 16//2 272//2 274//2 15//2
f 17//2 270//2 272//2 16//2
f 18//2 268//2 270//2 17//2
f 148//5 248//5 268//5 304//5
f 248//1 229//1 249//1 268//1
f 229//5 249//5 285//5 129//5
f 3//2 88//2 268//2 18//2
f 88//2 87//2 267//2 268//2
f 87//2 86//2 266//2 267//2
f 86//2 85//2 265//2 266//2
f 85//2 84//2 264//2 265//2
f 84//2 83//2 263//2 264//2
f 83//2 82//2 262//2 263//2
f 82//2 81//2 261//2 262//2
f 81//2 80//2 260//2 261//2
f 80//2 79//2 259//2 260//2
f 79//2 78//2 258//2 259//2
f 78//2 77//2 257//2 258//2
f 77//2 76//2 256//2 257//2
f 76//2 75//2 255//2 256//2
f 75//2 74//2 254//2 255//2
f 74//2 73//2 253//2 254//2
f 73//2 72//2 252//2 253//2
f 72//2 71//2 251//2 252//2
f 71//2 70//2 250//2 251//2
f 70//2 69//2 249//2 250//2
f 30//4 228//4 248//4 29//4
f 31//4 208//4 228//4 30//4
f 32//4 188//4 208//4 31//4
f 33//4 168//4 188//4 32//4
f 34//4 156//4 168//4 33//4
f 35//4 154//4 156//4 34//4
f 225//2 227//2 226//2 224//2
f 68//1 2//1 226//1 158//1
f 89//3 8//3 224//3 180//3
f 9//5 7//5 225//5 202//5
f 19//6 4//6 226//6 214//6
f 8//6 28//6 223//6 224//6
f 28//6 27//6 222//6 223//6
f 27//6 26//6 221//6 222//6
f 36//4 152//4 154//4 35//4
f 26//6 25//6 220//6 221//6
f 25//6 24//6 219//6 220//6
f 24//6 23//6 218//6 219//6
f 23//6 22//6 217//6 218//6
f 22//6 21//6 216//6 217//6
f 21//6 20//6 215//6 216//6
f 20//6 19//6 214//6 215//6
f 3//5 18//5 213//5 227//5
f 18//5 17//5 212//5 213//5
f 17//5 16//5 211//5 212//5
f 16//5 15//5 210//5 211//5
f 15//5 14//5 207//5 210//5
f 14//5 13//5 206//5 207//5
f 13//5 12//5 205//5 206//5
f 12//5 11//5 204//5 205//5
f 11//5 10//5 203//5 204//5
f 10//5 9//5 202//5 203//5
f 7//3 108//3 201//3 225//3
f 108//3 107//3 200//3 201//3
f 37//4 150//4 152//4 36//4
f 107//3 106//3 199//3 200//3
f 106//3 105//3 198//3 199//3
f 105//3 104//3 197//3 198//3
f 104//3 103//3 196//3 197//3
f 103//3 102//3 195//3 196//3
f 102//3 101//3 194//3 195//3
f 101//3 100//3 193//3 194//3
f 100//3 99//3 192//3 193//3
f 99//3 98//3 191//3 192//3
f 98//3 97//3 190//3 191//3
f 97//3 96//3 187//3 190//3
f 96//3 95//3 186//3 187//3
f 95//3 94//3 185//3 186//3
f 94//3 93//3 184//3 185//3
f 93//3 92//3 183//3 184//3
f 92//3 91//3 182//3 183//3
f 91//3 90//3 181//3 182//3
f 90//3 89//3 180//3 181//3
f 1//1 49//1 179//1 227//1
f 38//4 148//4 150//4 37//4
f 49//1 50//1 178//1 179//1
f 50//1 51//1 177//1 178//1
f 51//1 52//1 176//1 177//1
f 52//1 53//1 175//1 176//1
f 53//1 54//1 174//1 175//1
f 54//1 55//1 173//1 174//1
f 55//1 56//1 172//1 173//1
f 56//1 57//1 171//1 172//1
f 57//1 58//1 170//1 171//1
f 58//1 59//1 167//1 170//1
f 59//1 60//1 166//1 167//1
f 60//1 61//1 165//1 166//1
f 61//1 62//1 164//1 165//1
f 62//1 63//1 163//1 164//1
f 63//1 64//1 162//1 163//1
f 64//1 65//1 161//1 162//1
f 65//1 66//1 160//1 161//1
f 66//1 67//1 159//1 160//1
f 67//1 68//1 158//1 159//1
f 5//4 128//4 148//4 38//4
f 128//4 127//4 147//4 148//4
f 127//4 126//4 146//4 147//4
f 126//4 125//4 145//4 146//4
f 125//4 124//4 144//4 145//4
f 124//4 123//4 143//4 144//4
f 123//4 122//4 142//4 143//4
f 122//4 121//4 141//4 142//4
f 121//4 120//4 140//4 141//4
f 120//4 119//4 139//4 140//4
f 119//4 118//4 138//4 139//4
f 118//4 117//4 137//4 138//4
f 117//4 116//4 136//4 137//4
f 116//4 115//4 135//4 136//4
f 115//4 114//4 134//4 135//4
f 114//4 113//4 133//4 134//4
f 113//4 112//4 132//4 133//4
f 112//4 111//4 131//4 132//4
f 111//4 110//4 130//4 131//4
f 110//4 109//4 129//4 130//4
f 29//4 248//4 49//4 1//4
f 248//4 247//4 50//4 49//4
f 247//4 246//4 51//4 50//4
f 246//4 245//4 52//4 51//4
f 245//4 244//4 53//4 52//4
f 244//4 243//4 54//4 53//4
f 243//4 242//4 55//4 54//4
f 242//4 241//4 56//4 55//4
f 241//4 240//4 57//4 56//4
f 240//4 239//4 58//4 57//4
f 239//4 238//4 59//4 58//4
f 238//4 237//4 60//4 59//4
f 237//4 236//4 61//4 60//4
f 236//4 235//4 62//4 61//4
f 235//4 234//4 63//4 62//4
f 234//4 233//4 64//4 63//4
f 233//4 232//4 65//4 64//4
f 232//4 231//4 66//4 65//4
f 231//4 230//4 67//4 66//4
f 230//4 229//4 68//4 67//4
f 225//3 201//3 128//3 5//3
f 201//3 200//3 127//3 128//3
f 200//3 199//3 126//3 127//3
f 199//3 198//3 125//3 126//3
f 198//3 197//3 124//3 125//3
f 197//3 196//3 123//3 124//3
f 196//3 195//3 122//3 123//3
f 195//3 194//3 121//3 122//3
f 194//3 193//3 120//3 121//3
f 193//3 192//3 119//3 120//3
f 192//3 191//3 118//3 119//3
f 191//3 190//3 117//3 118//3
f 190//3 187//3 116//3 117//3
f 187//3 186//3 115//3 116//3
f 186//3 185//3 114//3 115//3
f 185//3 184//3 113//3 114//3
f 184//3 183//3 112//3 113//3
f 183//3 182//3 111//3 112//3
f 182//3 181//3 110//3 111//3
f 181//3 180//3 109//3 110//3
f 9//2 304//2 108//2 7//2
f 304//2 303//2 107//2 108//2
f 303//2 302//2 106//2 107//2
f 302//2 301//2 105//2 106//2
f 301//2 300//2 104//2 105//2
f 300//2 299//2 103//2 104//2
f 299//2 298//2 102//2 103//2
f 298//2 297//2 101//2 102//2
f 297//2 296//2 100//2 101//2
f 296//2 295//2 99//2 100//2
f 295//2 294//2 98//2 99//2
f 294//2 293//2 97//2 98//2
f 293//2 292//2 96//2 97//2
f 292//2 291//2 95//2 96//2
f 291//2 290//2 94//2 95//2
f 290//2 289//2 93//2 94//2
f 289//2 288//2 92//2 93//2
f 288//2 287//2 91//2 92//2
f 287//2 286//2 90//2 91//2
f 286//2 285//2 89//2 90//2
f 227//1 179//1 88//1 3//1
f 179//1 178//1 87//1 88//1
f 178//1 177//1 86//1 87//1
f 177//1 176//1 85//1 86//1
f 176//1 175//1 84//1 85//1
f 175//1 174//1 83//1 84//1
f 174//1 173//1 82//1 83//1
f 173//1 172//1 81//1 82//1
f 172//1 171//1 80//1 81//1
f 171//1 170//1 79//1 80//1
f 170//1 167//1 78//1 79//1
f 167//1 166//1 77//1 78//1
f 166//1 165//1 76//1 77//1
f 165//1 164//1 75//1 76//1
f 164//1 163//1 74//1 75//1
f 163//1 162//1 73//1 74//1
f 162//1 161//1 72//1 73//1
f 161//1 160//1 71//1 72//1
f 160//1 159//1 70//1 71//1
f 159//1 158//1 69//1 70//1
f 304//1 148//1 129//1 285//1
f 268//2 267//2 283//2 285//2 286//2 270//2
f 130//4 129//4 149//4 247//4 248//4 228//4
