# Blender v2.80 (sub 75) OBJ File: 'Level.blend'
# www.blender.org
mtllib Level.mtl
o Plane
v -11.000000 0.000000 3.000000
v 3.000000 0.000000 3.000000
v -11.000000 0.000000 -21.000000
v 3.000000 0.000000 -21.000000
v -11.000000 20.000000 3.000000
v 3.000000 20.000000 3.000000
v -11.000000 20.000000 -21.000000
v 3.000000 20.000000 -21.000000
v -11.000000 0.000000 -30.000000
v 3.000000 0.000000 -30.000000
v 3.000000 12.000000 -21.000000
v 3.000000 12.000000 3.000000
v -11.000000 12.000000 3.000000
v -11.000000 12.000000 -21.000000
v -11.000000 12.000000 -30.000000
v 3.000000 12.000000 -30.000000
v -2.000000 6.000000 -30.000000
v -6.000000 6.000000 -30.000000
v -6.000000 9.000000 -30.000000
v -2.000000 9.000000 -30.000000
v 3.000000 6.355093 -21.000000
v 3.000000 6.355093 3.000000
v -11.000000 6.355093 3.000000
v -11.000000 6.355093 -21.000000
v -11.000000 6.355093 -30.000000
v -6.000000 7.588773 -30.000000
v -19.700294 0.000000 -21.000000
v -19.700294 0.000000 -30.000000
v -19.700294 6.355093 -21.000000
v -19.700294 6.355093 -30.000000
v -11.000000 0.000000 -18.182512
v 3.000000 0.000000 -18.182512
v -11.000000 20.000000 -18.182512
v 3.000000 20.000000 -18.182512
v -11.000000 12.000000 -18.182512
v 3.000000 12.000000 -18.182512
v 3.000000 6.355093 -18.182512
v -11.000000 6.355093 -18.182512
v 3.000000 20.000000 -30.000000
v 5.000000 0.000000 -21.000000
v 5.000000 0.000000 -30.000000
v 5.000000 0.000000 -18.182512
v 5.000000 20.000000 -18.182512
v 5.000000 12.000000 -18.182512
v 5.000000 6.355093 -18.182512
v 5.000000 0.000000 -33.000000
v 5.000000 12.000000 -33.000000
v 5.000000 20.000000 -33.000000
v 29.000000 0.000000 -18.182512
v 29.000000 20.000000 -18.182512
v 29.000000 12.000000 -18.182512
v 29.000000 6.355093 -18.182512
v 29.000000 0.000000 -33.000000
v 29.000000 12.000000 -33.000000
v 29.000000 20.000000 -33.000000
v 5.000000 -10.000000 -21.000000
v 5.000000 -10.000000 -30.000000
v 5.000000 -10.000000 -18.182512
v 5.000000 -10.000000 -33.000000
v 29.000000 -10.000000 -18.182512
v 29.000000 -10.000000 -33.000000
v 5.000000 6.355100 -21.000000
v 5.000000 12.013956 -21.000000
v 5.000000 20.000000 -21.000000
v 5.000000 20.000000 -30.000000
v 5.000000 12.000000 -30.000000
v -2.000000 6.000000 -33.000000
v -6.000000 6.000000 -33.000000
v -6.000000 9.000000 -33.000000
v -2.000000 9.000000 -33.000000
v -6.000000 7.588773 -33.000000
v 29.000000 20.000000 -21.182512
v 29.000000 0.000000 -21.182512
v 29.000000 12.000000 -21.182512
v 29.000000 6.355093 -21.182512
v 29.000000 -10.000000 -21.182512
v 29.000000 0.000000 -30.000000
v 29.000000 12.000000 -30.000000
v 29.000000 20.000000 -30.000000
v 29.000000 -10.000000 -30.000000
v 31.000000 20.000000 -21.182512
v 31.000000 0.000000 -21.182512
v 31.000000 12.000000 -21.182512
v 31.000000 6.355093 -21.182512
v 31.000000 0.000000 -30.000000
v 31.000000 12.000000 -30.000000
v 31.000000 20.000000 -30.000000
v -11.000000 0.000000 3.000000
v 3.000000 0.000000 3.000000
v -11.000000 0.000000 -21.000000
v 3.000000 0.000000 -21.000000
v -11.000000 20.000000 3.000000
v 3.000000 20.000000 3.000000
v -11.000000 20.000000 -21.000000
v 3.000000 20.000000 -21.000000
v -11.000000 0.000000 -30.000000
v 3.000000 0.000000 -30.000000
v 3.000000 12.000000 -21.000000
v 3.000000 12.000000 3.000000
v -11.000000 12.000000 3.000000
v -11.000000 12.000000 -21.000000
v -11.000000 12.000000 -30.000000
v 3.000000 12.000000 -30.000000
v -2.000000 6.000000 -30.000000
v -6.000000 6.000000 -30.000000
v -6.000000 9.000000 -30.000000
v -2.000000 9.000000 -30.000000
v 3.000000 6.355093 -21.000000
v 3.000000 6.355093 3.000000
v -11.000000 6.355093 3.000000
v -11.000000 6.355093 -21.000000
v -11.000000 6.355093 -30.000000
v -6.000000 7.588773 -30.000000
v -19.700294 0.000000 -21.000000
v -19.700294 0.000000 -30.000000
v -19.700294 6.355093 -21.000000
v -19.700294 6.355093 -30.000000
v -11.000000 0.000000 -18.182512
v 3.000000 0.000000 -18.182512
v -11.000000 20.000000 -18.182512
v 3.000000 20.000000 -18.182512
v -11.000000 12.000000 -18.182512
v 3.000000 12.000000 -18.182512
v 3.000000 6.355093 -18.182512
v -11.000000 6.355093 -18.182512
v 3.000000 20.000000 -30.000000
v 5.000000 0.000000 -21.000000
v 5.000000 0.000000 -30.000000
v 5.000000 0.000000 -18.182512
v 5.000000 20.000000 -18.182512
v 5.000000 12.000000 -18.182512
v 5.000000 6.355093 -18.182512
v 5.000000 0.000000 -33.000000
v 5.000000 12.000000 -33.000000
v 5.000000 20.000000 -33.000000
v 29.000000 0.000000 -18.182512
v 29.000000 20.000000 -18.182512
v 29.000000 12.000000 -18.182512
v 29.000000 6.355093 -18.182512
v 29.000000 0.000000 -33.000000
v 29.000000 12.000000 -33.000000
v 29.000000 20.000000 -33.000000
v 5.000000 -10.000000 -21.000000
v 5.000000 -10.000000 -30.000000
v 5.000000 -10.000000 -18.182512
v 5.000000 -10.000000 -33.000000
v 29.000000 -10.000000 -18.182512
v 29.000000 -10.000000 -33.000000
v 5.000000 6.355100 -21.000000
v 5.000000 12.013956 -21.000000
v 5.000000 20.000000 -21.000000
v 5.000000 20.000000 -30.000000
v 5.000000 12.000000 -30.000000
v -2.000000 6.000000 -33.000000
v -6.000000 6.000000 -33.000000
v -6.000000 9.000000 -33.000000
v -2.000000 9.000000 -33.000000
v -6.000000 7.588773 -33.000000
v 29.000000 20.000000 -21.182512
v 29.000000 0.000000 -21.182512
v 29.000000 12.000000 -21.182512
v 29.000000 6.355093 -21.182512
v 29.000000 -10.000000 -21.182512
v 29.000000 0.000000 -30.000000
v 29.000000 12.000000 -30.000000
v 29.000000 20.000000 -30.000000
v 29.000000 -10.000000 -30.000000
v 31.000000 20.000000 -21.182512
v 31.000000 0.000000 -21.182512
v 31.000000 12.000000 -21.182512
v 31.000000 6.355093 -21.182512
v 31.000000 0.000000 -30.000000
v 31.000000 12.000000 -30.000000
v 31.000000 20.000000 -30.000000
vt 0.000000 0.882605
vt 1.000000 0.882605
vt 1.000000 1.000000
vt 0.000000 1.000000
vt 1.000000 0.882605
vt 1.000000 0.000000
vt 1.000000 0.000000
vt 1.000000 0.882605
vt 0.000000 0.000000
vt 0.000000 0.000000
vt 0.000000 0.882605
vt 0.000000 1.000000
vt 0.000000 1.000000
vt 0.000000 0.882605
vt 1.000000 1.000000
vt 0.000000 1.000000
vt 0.000000 0.882605
vt 0.000000 1.000000
vt 1.000000 0.000000
vt 0.000000 0.000000
vt 1.000000 0.882605
vt 0.000000 0.000000
vt 0.000000 0.000000
vt 0.000000 0.000000
vt 0.000000 0.000000
vt 1.000000 1.000000
vt 1.000000 1.000000
vt 0.000000 0.000000
vt 0.000000 0.000000
vt 0.000000 0.000000
vt 0.000000 0.000000
vt 1.000000 1.000000
vt 0.000000 1.000000
vt 0.000000 0.000000
vt 0.000000 0.000000
vt 1.000000 0.000000
vt 0.000000 0.000000
vt 0.000000 1.000000
vt 0.000000 1.000000
vt 0.000000 1.000000
vt 0.000000 0.000000
vt 0.000000 0.000000
vt 1.000000 1.000000
vt 0.000000 0.000000
vt 0.000000 0.000000
vt 0.000000 0.000000
vt 1.000000 1.000000
vt 1.000000 0.882605
vt 1.000000 0.882605
vt 1.000000 0.882605
vt 1.000000 0.882605
vt 1.000000 1.000000
vt 0.000000 0.000000
vt 0.000000 0.000000
vt 0.000000 0.000000
vt 0.000000 0.000000
vt 1.000000 0.882605
vt 1.000000 0.882605
vt 0.000000 0.000000
vt 0.000000 0.000000
vt 1.000000 0.882605
vt 1.000000 0.882605
vt 0.000000 0.000000
vt 0.000000 0.000000
vt 0.000000 0.000000
vt 1.000000 1.000000
vt 1.000000 1.000000
vt 0.000000 0.000000
vt 1.000000 0.882605
vt 1.000000 0.882605
vt 1.000000 0.882605
vt 1.000000 0.882605
vt 0.000000 0.000000
vt 0.000000 0.000000
vt 0.000000 0.000000
vt 0.000000 0.000000
vt 0.000000 0.000000
vt 0.000000 0.000000
vt 0.000000 0.000000
vt 0.000000 0.000000
vt 0.000000 0.000000
vt 0.000000 0.000000
vt 0.000000 0.000000
vt 0.000000 0.000000
vt 0.000000 0.000000
vt 0.000000 0.000000
vt 0.000000 0.000000
vt 0.000000 0.000000
vt 0.000000 0.000000
vt 1.000000 1.000000
vt 0.000000 1.000000
vt 0.000000 0.000000
vt 1.000000 0.882605
vt 1.000000 0.882605
vt 1.000000 0.882605
vt 0.000000 0.000000
vt 0.000000 0.000000
vt 0.000000 0.000000
vt 0.000000 0.000000
vt 1.000000 0.882605
vt 1.000000 0.882605
vt 0.000000 0.000000
vt 0.000000 0.000000
vt 1.000000 0.882605
vt 1.000000 0.882605
vt 0.000000 0.000000
vt 0.000000 0.882605
vt 0.000000 1.000000
vt 1.000000 1.000000
vt 1.000000 0.882605
vt 1.000000 0.882605
vt 1.000000 0.882605
vt 1.000000 0.000000
vt 1.000000 0.000000
vt 0.000000 0.000000
vt 0.000000 0.000000
vt 0.000000 0.882605
vt 0.000000 0.882605
vt 0.000000 1.000000
vt 0.000000 1.000000
vt 0.000000 1.000000
vt 1.000000 1.000000
vt 0.000000 0.882605
vt 0.000000 1.000000
vt 1.000000 0.000000
vt 0.000000 0.000000
vt 1.000000 0.882605
vt 0.000000 0.000000
vt 0.000000 0.000000
vt 0.000000 0.000000
vt 0.000000 0.000000
vt 1.000000 1.000000
vt 1.000000 1.000000
vt 0.000000 0.000000
vt 0.000000 0.000000
vt 0.000000 0.000000
vt 0.000000 0.000000
vt 0.000000 1.000000
vt 1.000000 1.000000
vt 0.000000 0.000000
vt 0.000000 0.000000
vt 1.000000 0.000000
vt 0.000000 0.000000
vt 0.000000 1.000000
vt 0.000000 1.000000
vt 0.000000 1.000000
vt 0.000000 0.000000
vt 0.000000 0.000000
vt 1.000000 1.000000
vt 0.000000 0.000000
vt 0.000000 0.000000
vt 0.000000 0.000000
vt 1.000000 0.882605
vt 1.000000 1.000000
vt 1.000000 0.882605
vt 1.000000 0.882605
vt 1.000000 0.882605
vt 1.000000 1.000000
vt 0.000000 0.000000
vt 0.000000 0.000000
vt 0.000000 0.000000
vt 0.000000 0.000000
vt 1.000000 0.882605
vt 1.000000 0.882605
vt 0.000000 0.000000
vt 0.000000 0.000000
vt 1.000000 0.882605
vt 1.000000 0.882605
vt 0.000000 0.000000
vt 0.000000 0.000000
vt 0.000000 0.000000
vt 1.000000 1.000000
vt 1.000000 1.000000
vt 0.000000 0.000000
vt 1.000000 0.882605
vt 1.000000 0.882605
vt 1.000000 0.882605
vt 1.000000 0.882605
vt 0.000000 0.000000
vt 0.000000 0.000000
vt 0.000000 0.000000
vt 0.000000 0.000000
vt 0.000000 0.000000
vt 0.000000 0.000000
vt 0.000000 0.000000
vt 0.000000 0.000000
vt 0.000000 0.000000
vt 0.000000 0.000000
vt 0.000000 0.000000
vt 0.000000 0.000000
vt 0.000000 0.000000
vt 0.000000 0.000000
vt 0.000000 0.000000
vt 0.000000 0.000000
vt 0.000000 0.000000
vt 0.000000 1.000000
vt 1.000000 1.000000
vt 0.000000 0.000000
vt 1.000000 0.882605
vt 1.000000 0.882605
vt 1.000000 0.882605
vt 0.000000 0.000000
vt 0.000000 0.000000
vt 0.000000 0.000000
vt 0.000000 0.000000
vt 1.000000 0.882605
vt 1.000000 0.882605
vt 0.000000 0.000000
vt 0.000000 0.000000
vt 1.000000 0.882605
vt 0.000000 0.000000
vt 1.000000 0.882605
vn 0.0000 1.0000 0.0000
vn -1.0000 0.0000 0.0000
vn 0.0000 0.0000 -1.0000
vn 1.0000 0.0000 0.0000
vn 0.0000 -1.0000 0.0000
vn 0.0000 0.0000 1.0000
usemtl None
s off
f 31/1/1 32/2/1 4/3/1 3/4/1
f 36/5/2 12/6/2 6/7/2 34/8/2
f 12/6/3 13/9/3 5/10/3 6/7/3
f 35/11/4 14/12/4 7/13/4 33/14/4
f 33/14/5 34/8/5 6/7/5 5/10/5
f 3/4/1 4/3/1 10/15/1 9/16/1
f 38/17/4 24/18/4 14/12/4 35/11/4
f 22/19/3 23/20/3 13/9/3 12/6/3
f 37/21/2 22/19/2 12/6/2 36/5/2
f 16/22/6 15/23/6 19/24/6 20/25/6
f 14/12/6 11/26/6 8/27/6 7/13/6
f 16/22/5 11/26/5 14/12/5 15/23/5
f 25/28/6 9/29/6 18/30/6 26/31/6
f 9/16/6 10/15/6 17/32/6 18/33/6
f 10/34/6 16/22/6 20/25/6 17/35/6
f 24/18/4 25/28/4 15/23/4 14/12/4
f 15/23/6 25/28/6 26/31/6 19/24/6
f 32/2/2 2/36/2 22/19/2 37/21/2
f 2/36/3 1/37/3 23/20/3 22/19/3
f 31/1/4 3/4/4 24/18/4 38/17/4
f 24/18/3 3/4/3 27/38/3 29/39/3
f 3/4/1 9/16/1 28/40/1 27/38/1
f 25/28/5 24/18/5 29/39/5 30/41/5
f 9/29/6 25/28/6 30/41/6 28/42/6
f 27/38/4 28/42/4 30/41/4 29/39/4
f 1/37/4 31/1/4 38/17/4 23/20/4
f 4/3/2 32/2/2 37/21/2 21/43/2
f 21/43/2 37/21/2 36/5/2 11/26/2
f 23/20/4 38/17/4 35/11/4 13/9/4
f 7/13/5 8/27/5 34/8/5 33/14/5
f 13/9/4 35/11/4 33/14/4 5/10/4
f 11/26/2 36/5/2 34/8/2 8/27/2
f 1/37/1 2/36/1 32/2/1 31/1/1
f 39/44/4 8/45/4 11/46/4 16/22/4
f 32/2/5 4/3/5 40/47/5 42/48/5
f 37/21/6 32/2/6 42/48/6 45/49/6
f 34/8/6 36/5/6 44/50/6 43/51/6
f 10/15/1 4/3/1 40/47/1 41/52/1
f 36/5/6 37/21/6 45/49/6 44/50/6
f 47/53/6 46/54/6 53/55/6 54/56/6
f 44/50/3 51/57/3 52/58/3 45/49/3
f 48/59/6 47/53/6 54/56/6 55/60/6
f 43/51/3 50/61/3 51/57/3 44/50/3
f 45/49/3 52/58/3 49/62/3 42/48/3
f 46/54/4 41/63/4 57/64/4 59/65/4
f 41/52/4 40/47/4 56/66/4 57/67/4
f 53/55/6 46/54/6 59/65/6 61/68/6
f 49/62/3 60/69/3 58/70/3 42/48/3
f 42/48/4 58/70/4 56/66/4 40/47/4
f 52/58/2 51/57/2 74/71/2 75/72/2
f 42/73/4 40/74/4 62/75/4 45/76/4
f 21/77/3 62/75/3 40/74/3 4/78/3
f 63/79/3 62/75/3 21/77/3 11/26/3
f 62/75/4 63/79/4 44/80/4 45/76/4
f 63/79/4 64/81/4 43/82/4 44/80/4
f 63/79/3 11/26/3 8/27/3 64/81/3
f 34/83/1 43/82/1 64/81/1 8/45/1
f 47/53/4 66/84/4 41/63/4 46/54/4
f 16/22/6 10/15/6 41/63/6 66/84/6
f 39/44/6 16/22/6 66/84/6 65/85/6
f 48/59/4 65/85/4 66/84/4 47/53/4
f 26/31/4 18/30/4 68/86/4 71/87/4
f 17/35/2 20/25/2 70/88/2 67/89/2
f 18/33/1 17/32/1 67/90/1 68/91/1
f 20/25/5 19/24/5 69/92/5 70/88/5
f 19/24/4 26/31/4 71/87/4 69/92/4
f 60/69/2 49/62/2 73/93/2 76/94/2
f 51/57/2 50/61/2 72/95/2 74/71/2
f 49/62/2 52/58/2 75/72/2 73/93/2
f 53/55/2 61/68/2 80/96/2 77/97/2
f 55/60/2 54/56/2 78/98/2 79/99/2
f 54/56/2 53/55/2 77/97/2 78/98/2
f 73/93/2 77/97/2 80/96/2 76/94/2
f 57/67/1 56/66/1 76/94/1 80/96/1
f 58/70/1 60/69/1 76/94/1 56/66/1
f 57/67/1 80/96/1 61/68/1 59/65/1
f 75/72/3 74/71/3 83/100/3 84/101/3
f 79/99/6 78/98/6 86/102/6 87/103/6
f 74/71/3 72/95/3 81/104/3 83/100/3
f 77/97/1 73/93/1 82/105/1 85/106/1
f 73/93/3 75/72/3 84/101/3 82/105/3
f 78/98/6 77/97/6 85/106/6 86/102/6
f 81/104/2 87/103/2 86/102/2 83/100/2
f 118/107/5 90/108/5 91/109/5 119/110/5
f 123/111/4 121/112/4 93/113/4 99/114/4
f 99/114/6 93/113/6 92/115/6 100/116/6
f 122/117/2 120/118/2 94/119/2 101/120/2
f 120/118/1 92/115/1 93/113/1 121/112/1
f 90/108/5 96/121/5 97/122/5 91/109/5
f 125/123/2 122/117/2 101/120/2 111/124/2
f 109/125/6 99/114/6 100/116/6 110/126/6
f 124/127/4 123/111/4 99/114/4 109/125/4
f 103/128/3 107/129/3 106/130/3 102/131/3
f 101/120/3 94/119/3 95/132/3 98/133/3
f 103/128/1 102/131/1 101/120/1 98/133/1
f 112/134/3 113/135/3 105/136/3 96/137/3
f 96/121/3 105/138/3 104/139/3 97/122/3
f 97/140/3 104/141/3 107/129/3 103/128/3
f 111/124/2 101/120/2 102/131/2 112/134/2
f 102/131/3 106/130/3 113/135/3 112/134/3
f 119/110/4 124/127/4 109/125/4 89/142/4
f 89/142/6 109/125/6 110/126/6 88/143/6
f 118/107/2 125/123/2 111/124/2 90/108/2
f 111/124/6 116/144/6 114/145/6 90/108/6
f 90/108/5 114/145/5 115/146/5 96/121/5
f 112/134/1 117/147/1 116/144/1 111/124/1
f 96/137/3 115/148/3 117/147/3 112/134/3
f 114/145/2 116/144/2 117/147/2 115/148/2
f 88/143/2 110/126/2 125/123/2 118/107/2
f 91/109/4 108/149/4 124/127/4 119/110/4
f 108/149/4 98/133/4 123/111/4 124/127/4
f 110/126/2 100/116/2 122/117/2 125/123/2
f 94/119/1 120/118/1 121/112/1 95/132/1
f 100/116/2 92/115/2 120/118/2 122/117/2
f 98/133/4 95/132/4 121/112/4 123/111/4
f 88/143/5 118/107/5 119/110/5 89/142/5
f 126/150/2 103/128/2 98/151/2 95/152/2
f 119/110/1 129/153/1 127/154/1 91/109/1
f 124/127/3 132/155/3 129/153/3 119/110/3
f 121/112/3 130/156/3 131/157/3 123/111/3
f 97/122/5 128/158/5 127/154/5 91/109/5
f 123/111/3 131/157/3 132/155/3 124/127/3
f 134/159/3 141/160/3 140/161/3 133/162/3
f 131/157/6 132/155/6 139/163/6 138/164/6
f 135/165/3 142/166/3 141/160/3 134/159/3
f 130/156/6 131/157/6 138/164/6 137/167/6
f 132/155/6 129/153/6 136/168/6 139/163/6
f 133/162/2 146/169/2 144/170/2 128/171/2
f 128/158/2 144/172/2 143/173/2 127/154/2
f 140/161/3 148/174/3 146/169/3 133/162/3
f 136/168/6 129/153/6 145/175/6 147/176/6
f 129/153/2 127/154/2 143/173/2 145/175/2
f 139/163/4 162/177/4 161/178/4 138/164/4
f 129/179/2 132/180/2 149/181/2 127/182/2
f 108/183/6 91/184/6 127/182/6 149/181/6
f 150/185/6 98/133/6 108/183/6 149/181/6
f 149/181/2 132/180/2 131/186/2 150/185/2
f 150/185/2 131/186/2 130/187/2 151/188/2
f 150/185/6 151/188/6 95/132/6 98/133/6
f 121/189/5 95/152/5 151/188/5 130/187/5
f 134/159/2 133/162/2 128/171/2 153/190/2
f 103/128/3 153/190/3 128/171/3 97/122/3
f 126/150/3 152/191/3 153/190/3 103/128/3
f 135/165/2 134/159/2 153/190/2 152/191/2
f 113/135/2 158/192/2 155/193/2 105/136/2
f 104/141/4 154/194/4 157/195/4 107/129/4
f 105/138/5 155/196/5 154/197/5 104/139/5
f 107/129/1 157/195/1 156/198/1 106/130/1
f 106/130/2 156/198/2 158/192/2 113/135/2
f 147/176/4 163/199/4 160/200/4 136/168/4
f 138/164/4 161/178/4 159/201/4 137/167/4
f 136/168/4 160/200/4 162/177/4 139/163/4
f 140/161/4 164/202/4 167/203/4 148/174/4
f 142/166/4 166/204/4 165/205/4 141/160/4
f 141/160/4 165/205/4 164/202/4 140/161/4
f 160/200/4 163/199/4 167/203/4 164/202/4
f 144/172/5 167/203/5 163/199/5 143/173/5
f 145/175/5 143/173/5 163/199/5 147/176/5
f 144/172/5 146/169/5 148/174/5 167/203/5
f 162/177/6 171/206/6 170/207/6 161/178/6
f 166/204/3 174/208/3 173/209/3 165/205/3
f 161/178/6 170/207/6 168/210/6 159/201/6
f 164/202/5 172/211/5 169/212/5 160/200/5
f 160/200/6 169/212/6 171/206/6 162/177/6
f 165/205/3 173/209/3 172/211/3 164/202/3
f 168/210/4 170/207/4 173/209/4 174/208/4
f 8/45/6 39/44/6 126/150/6 95/152/6
f 48/59/6 55/60/6 142/166/6 135/165/6
f 50/61/6 43/51/6 130/156/6 137/167/6
f 39/44/6 65/85/6 152/191/6 126/150/6
f 65/85/6 48/59/6 135/165/6 152/191/6
f 68/91/6 67/90/6 154/197/6 155/196/6
f 69/92/6 71/87/6 158/192/6 156/198/6
f 67/89/6 70/88/6 157/195/6 154/194/6
f 70/88/6 69/92/6 156/198/6 157/195/6
f 71/87/6 68/86/6 155/193/6 158/192/6
f 72/95/6 50/61/6 137/167/6 159/201/6
f 55/60/6 79/99/6 166/204/6 142/166/6
f 84/101/6 83/100/6 170/207/6 171/206/6
f 82/105/6 84/101/6 171/206/6 169/212/6
f 86/102/6 85/106/6 172/211/6 173/209/6
f 85/106/6 82/105/6 169/212/6 172/211/6
f 79/99/6 87/103/6 174/208/6 166/204/6
f 81/104/6 72/95/6 159/201/6 168/210/6
f 83/100/6 86/102/6 173/209/6 170/207/6
f 87/103/6 81/104/6 168/210/6 174/208/6
