# Blender v2.79 (sub 0) OBJ File: ''
# www.blender.org
mtllib torch.mtl
o Cube
v 1.000000 3.000000 -0.999999
v 0.999999 3.000000 1.000001
v -1.000000 3.000000 1.000000
v -1.000000 3.000000 -1.000000
v 1.000000 -2.115516 -1.000000
v 1.000000 1.313056 1.000000
v -1.000000 1.313056 1.000000
v -1.000000 -2.115516 -1.000000
vn 0.0000 1.0000 0.0000
vn 1.0000 -0.0000 0.0000
vn 0.0000 0.0000 -1.0000
vn -1.0000 -0.0000 -0.0000
vn -0.0000 -0.0000 1.0000
vn -0.0000 -0.5039 0.8638
usemtl Material
s off
f 1//1 4//1 3//1 2//1
f 2//2 6//2 5//2 1//2
f 4//3 1//3 5//3 8//3
f 3//4 4//4 8//4 7//4
f 3//5 7//5 6//5 2//5
f 8//6 5//6 6//6 7//6
