# Blender v2.79 (sub 0) OBJ File: ''
# www.blender.org
mtllib fixedturretbasis.mtl
o basis_Cube
v 0.818182 0.001206 0.818182
v 1.000000 0.001206 0.818182
v 1.000000 0.001206 1.000000
v 0.818182 0.001206 1.000000
v 0.818182 0.001206 -1.000000
v 1.000000 0.001206 -1.000000
v 1.000000 0.001206 -0.818182
v 0.818182 0.001206 -0.818182
v 1.000000 0.001206 -0.636364
v 0.818182 0.001206 -0.636364
v 1.000000 0.001206 -0.454545
v 0.818182 0.001206 -0.454545
v -0.090909 0.001206 -0.454545
v -0.090909 0.546661 -0.272727
v 0.090909 0.546661 -0.272727
v 0.090909 0.001206 -0.454545
v 0.272727 0.546661 -0.272727
v 0.272727 0.001206 -0.636364
v 0.454545 0.001206 -0.818182
v 0.454545 0.001206 -1.000000
v 0.454545 0.183024 -1.000000
v -0.818182 0.001206 0.454545
v -0.272727 0.546661 0.272727
v -0.636364 0.001206 0.272727
v -0.272727 0.546661 0.090909
v -0.454545 0.001206 0.090909
v 0.818182 0.001206 0.454545
v 1.000000 0.001206 0.454545
v 1.000000 0.001206 0.636364
v 0.818182 0.001206 0.636364
v -1.000000 0.001206 -0.636364
v -1.000000 0.183024 -0.636364
v -1.000000 0.183024 -0.818182
v -1.000000 0.001206 -0.818182
v -1.000000 0.183024 0.454545
v -1.000000 0.001206 0.454545
v -1.000000 0.001206 0.636364
v -1.000000 0.183024 0.636364
v -1.000000 0.183024 -0.454545
v -1.000000 0.001206 -0.454545
v -1.000000 0.001206 0.818182
v -1.000000 0.183024 0.818182
v -1.000000 0.001206 1.000000
v -1.000000 0.183024 1.000000
v 1.000000 0.183024 0.636364
v 1.000000 0.183024 0.818182
v 1.000000 0.183024 0.454545
v -0.272727 0.546661 -0.272727
v -0.818182 0.001206 -0.454545
v -0.636364 0.001206 -0.272727
v -0.454545 0.001206 -0.090909
v -0.272727 0.546661 -0.090909
v 1.000000 0.183024 -0.636364
v 1.000000 0.183024 -0.454545
v 1.000000 0.183024 -0.818182
v 1.000000 0.183024 -1.000000
v 0.818182 0.183024 -1.000000
v 1.000000 0.183024 1.000000
v -1.000000 0.183024 -1.000000
v -1.000000 0.001206 -1.000000
v -0.818182 0.001206 1.000000
v -0.818182 0.183024 1.000000
v 0.818182 0.183024 1.000000
v 0.636364 0.183024 1.000000
v 0.636364 0.001206 1.000000
v 0.454545 0.183024 1.000000
v 0.454545 0.001206 1.000000
v 0.454545 0.001206 0.818182
v 0.272727 0.546661 0.272727
v 0.272727 0.001206 0.636364
v 0.090909 0.546661 0.272727
v 0.090909 0.001206 0.454545
v -0.454545 0.001206 0.818182
v -0.454545 0.183024 1.000000
v -0.454545 0.001206 1.000000
v -0.272727 0.001206 0.636364
v -0.636364 0.183024 1.000000
v -0.636364 0.001206 1.000000
v -0.818182 0.183024 -1.000000
v -0.818182 0.001206 -1.000000
v -0.636364 0.183024 -1.000000
v -0.636364 0.001206 -1.000000
v -0.454545 0.183024 -1.000000
v -0.454545 0.001206 -1.000000
v 0.636364 0.183024 -1.000000
v 0.636364 0.001206 -1.000000
v -0.818182 0.001206 0.636364
v -0.818182 0.001206 0.818182
v -0.636364 0.001206 0.636364
v -0.636364 0.001206 0.818182
v -0.454545 0.001206 0.636364
v 0.454545 0.001206 -0.636364
v -0.090909 0.001206 0.454545
v -0.090909 0.546661 0.272727
v 0.272727 0.001206 -0.454545
v 0.454545 0.001206 0.636364
v 0.636364 0.001206 0.636364
v 0.636364 0.001206 0.818182
v -0.636364 0.001206 0.454545
v -0.454545 0.001206 0.454545
v -0.272727 0.001206 0.454545
v -0.272727 0.001206 -0.454545
v -0.272727 0.001206 -0.636364
v 0.636364 0.001206 -0.272727
v -0.454545 0.001206 -0.636364
v -0.454545 0.001206 -0.818182
v 0.272727 0.001206 0.454545
v 0.454545 0.001206 0.454545
v 0.636364 0.001206 0.454545
v -0.636364 0.001206 -0.454545
v -0.454545 0.001206 0.272727
v -0.272727 0.001206 0.272727
v -0.090909 0.001206 0.272727
v 0.090909 0.001206 0.272727
v 0.272727 0.001206 0.272727
v 0.454545 0.001206 0.272727
v 0.636364 0.001206 0.272727
v -0.454545 0.001206 -0.272727
v -0.272727 0.001206 0.090909
v -0.090909 0.001206 0.090909
v 0.090909 0.001206 0.090909
v 0.272727 0.001206 0.090909
v 0.454545 0.001206 0.090909
v 0.272727 0.546661 -0.090909
v 0.454545 0.001206 -0.090909
v -0.272727 0.001206 -0.090909
v -0.090909 0.001206 -0.090909
v 0.090909 0.001206 -0.090909
v 0.272727 0.001206 -0.090909
v -0.272727 0.001206 -0.272727
v -0.090909 0.001206 -0.272727
v 0.090909 0.001206 -0.272727
v 0.272727 0.001206 -0.272727
v 0.454545 0.001206 -0.272727
v 0.272727 0.546661 0.090909
v -0.454545 0.001206 -0.454545
v 0.454545 0.001206 -0.454545
v 0.636364 0.001206 -0.454545
v -0.818182 0.001206 -0.636364
v -0.636364 0.001206 -0.636364
v 0.636364 0.001206 -0.636364
v -0.818182 0.001206 -0.818182
v -0.636364 0.001206 -0.818182
v 0.636364 0.001206 -0.818182
v 0.090909 0.546661 -0.090909
v -0.090909 0.546661 -0.090909
v 0.090909 0.546661 0.090909
v -0.090909 0.546661 0.090909
vt 0.352273 0.727273
vt 0.375000 0.727273
vt 0.375000 0.750000
vt 0.352273 0.750000
vt 0.352273 0.500000
vt 0.375000 0.500000
vt 0.375000 0.522727
vt 0.352273 0.522727
vt 0.375000 0.545455
vt 0.352273 0.545455
vt 0.375000 0.568182
vt 0.352273 0.568182
vt 0.238636 0.568182
vt 0.000000 0.000000
vt 0.000000 0.000000
vt 0.261364 0.568182
vt 0.000000 0.000000
vt 0.306818 0.522727
vt 0.000000 0.000000
vt 0.397727 0.431818
vt 0.306818 0.500000
vt 0.147727 0.681818
vt 0.000000 0.000000
vt 0.000000 0.000000
vt 0.000000 0.000000
vt 0.193182 0.636364
vt 0.352273 0.681818
vt 0.375000 0.681818
vt 0.375000 0.704545
vt 0.352273 0.704545
vt 0.375000 0.204545
vt 0.397727 0.204545
vt 0.397727 0.227273
vt 0.375000 0.227273
vt 0.000000 0.000000
vt 0.125000 0.681818
vt 0.375000 0.045455
vt 0.397727 0.045455
vt 0.000000 0.000000
vt 0.125000 0.545455
vt 0.125000 0.568182
vt 0.375000 0.022727
vt 0.397727 0.022727
vt 0.375000 0.000000
vt 0.397727 0.000000
vt 0.397727 0.704545
vt 0.397727 0.727273
vt 0.397727 0.681818
vt 0.000000 0.000000
vt 0.147727 0.568182
vt 0.000000 0.000000
vt 0.000000 0.000000
vt 0.193182 0.613636
vt 0.000000 0.000000
vt 0.397727 0.545455
vt 0.397727 0.568182
vt 0.397727 0.522727
vt 0.397727 0.500000
vt 0.375000 0.477273
vt 0.397727 0.477273
vt 0.397727 0.750000
vt 0.397727 0.250000
vt 0.375000 0.250000
vt 0.375000 0.977273
vt 0.397727 0.977273
vt 0.397727 1.000000
vt 0.375000 1.000000
vt 0.397727 0.772727
vt 0.375000 0.772727
vt 0.397727 0.795455
vt 0.375000 0.795455
vt 0.397727 0.818182
vt 0.375000 0.818182
vt 0.306818 0.727273
vt 0.306818 0.750000
vt 0.000000 0.000000
vt 0.000000 0.000000
vt 0.000000 0.000000
vt 0.000000 0.000000
vt 0.261364 0.681818
vt 0.193182 0.727273
vt 0.397727 0.931818
vt 0.193182 0.750000
vt 0.000000 0.000000
vt 0.000000 0.000000
vt 0.375000 0.931818
vt 0.397727 0.954545
vt 0.375000 0.954545
vt 0.397727 0.272727
vt 0.375000 0.272727
vt 0.397727 0.295455
vt 0.375000 0.295455
vt 0.397727 0.318182
vt 0.375000 0.318182
vt 0.375000 0.431818
vt 0.397727 0.454545
vt 0.375000 0.454545
vt 0.125000 0.704545
vt 0.147727 0.704545
vt 0.147727 0.727273
vt 0.125000 0.727273
vt 0.170455 0.704545
vt 0.170455 0.727273
vt 0.193182 0.704545
vt 0.306818 0.545455
vt 0.238636 0.681818
vt 0.000000 0.000000
vt 0.000000 0.000000
vt 0.000000 0.000000
vt 0.284091 0.568182
vt 0.284091 0.545455
vt 0.306818 0.704545
vt 0.329545 0.704545
vt 0.329545 0.727273
vt 0.170455 0.681818
vt 0.193182 0.681818
vt 0.215909 0.681818
vt 0.215909 0.704545
vt 0.215909 0.568182
vt 0.000000 0.000000
vt 0.000000 0.000000
vt 0.193182 0.545455
vt 0.193182 0.522727
vt 0.284091 0.681818
vt 0.306818 0.681818
vt 0.284091 0.704545
vt 0.329545 0.681818
vt 0.170455 0.568182
vt 0.170455 0.590909
vt 0.170455 0.659091
vt 0.193182 0.659091
vt 0.215909 0.659091
vt 0.238636 0.659091
vt 0.261364 0.659091
vt 0.284091 0.659091
vt 0.306818 0.659091
vt 0.329545 0.659091
vt 0.193182 0.590909
vt 0.215909 0.636364
vt 0.238636 0.636364
vt 0.261364 0.636364
vt 0.284091 0.636364
vt 0.306818 0.636364
vt 0.000000 0.000000
vt 0.306818 0.613636
vt 0.215909 0.613636
vt 0.238636 0.613636
vt 0.261364 0.613636
vt 0.284091 0.613636
vt 0.000000 0.000000
vt 0.000000 0.000000
vt 0.000000 0.000000
vt 0.215909 0.590909
vt 0.238636 0.590909
vt 0.261364 0.590909
vt 0.284091 0.590909
vt 0.306818 0.590909
vt 0.000000 0.000000
vt 0.193182 0.568182
vt 0.306818 0.568182
vt 0.329545 0.568182
vt 0.329545 0.590909
vt 0.147727 0.545455
vt 0.170455 0.545455
vt 0.215909 0.545455
vt 0.329545 0.545455
vt 0.125000 0.522727
vt 0.147727 0.522727
vt 0.170455 0.522727
vt 0.329545 0.522727
vt 0.125000 0.500000
vt 0.147727 0.500000
vt 0.170455 0.500000
vt 0.193182 0.500000
vt 0.000000 0.000000
vt 0.000000 0.000000
vt 0.329545 0.500000
vt 0.147727 0.750000
vt 0.125000 0.750000
vt 0.170455 0.750000
vt 0.000000 0.000000
vt 0.000000 0.000000
vt 0.000000 0.000000
vt 0.000000 0.000000
vt 0.000000 0.000000
vt 0.000000 0.000000
vt 0.000000 0.000000
vt 0.329545 0.750000
vt 0.000000 0.000000
vt 0.000000 0.000000
vt 0.000000 0.000000
vt 0.000000 0.000000
vn 0.0000 -1.0000 -0.0000
vn 0.0000 0.3162 -0.9487
vn -0.1632 0.6894 -0.7057
vn -0.1802 -0.6628 -0.7267
vn -0.6396 0.4264 -0.6396
vn -0.5801 -0.7944 -0.1798
vn -0.5183 -0.5434 -0.6604
vn -0.9802 -0.1400 -0.1400
vn -0.7264 -0.1038 -0.6794
vn -0.5195 -0.6042 -0.6042
vn -0.8165 0.4082 -0.4083
vn -1.0000 0.0000 0.0000
vn 1.0000 0.0000 0.0000
vn 0.0447 0.9980 -0.0447
vn -0.1400 -0.1400 -0.9802
vn -0.3184 0.6344 -0.7044
vn -0.1400 -0.1400 0.9802
vn -0.6396 0.4264 0.6396
vn -0.8165 0.4082 0.4083
vn -0.9487 0.3162 0.0000
vn 0.0000 0.0000 -1.0000
vn 0.0000 0.0000 1.0000
vn -0.9802 -0.1400 0.1400
vn -0.4083 0.4082 0.8165
vn 0.9802 -0.1400 0.1400
vn 0.7044 0.6344 0.3184
vn 0.6396 0.4264 0.6396
vn 0.4083 0.4082 0.8165
vn 0.0000 0.3162 0.9487
vn 0.3184 0.6344 0.7044
vn 0.2980 0.9504 0.0887
vn 0.1400 -0.1400 0.9802
vn 0.8165 0.4082 0.4083
vn 0.1400 -0.1400 -0.9802
vn 0.6396 0.4264 -0.6396
vn 0.8165 0.4082 -0.4083
vn 0.9802 -0.1400 -0.1400
vn 0.4083 0.4082 -0.8165
vn -0.2433 0.8391 -0.4865
vn 0.9487 0.3162 0.0000
vn 0.2357 0.9428 -0.2357
vn -0.2357 0.9428 -0.2357
vn -0.2357 0.9428 0.2357
vn 0.2357 0.9428 0.2357
vn 0.0000 1.0000 0.0000
usemtl Material.001
s 1
f 1/1/1 2/2/1 3/3/1 4/4/1
f 5/5/1 6/6/1 7/7/1 8/8/1
f 8/8/1 7/7/1 9/9/1 10/10/1
f 10/10/1 9/9/1 11/11/1 12/12/1
f 13/13/2 14/14/2 15/15/3 16/16/4
f 17/17/5 19/18/6 18/19/7
f 19/18/6 17/17/8 21/20/9 20/21/10
f 22/22/5 23/23/5 24/24/5
f 23/23/11 25/25/11 26/26/11 24/24/11
f 27/27/1 28/28/1 29/29/1 30/30/1
f 30/30/1 29/29/1 2/2/1 1/1/1
f 31/31/12 32/32/12 33/33/12 34/34/12
f 35/35/12 36/36/12 37/37/12 38/38/12
f 39/39/12 32/32/12 31/40/12 40/41/12
f 41/42/12 42/43/12 38/38/12 37/37/12
f 43/44/12 44/45/12 42/43/12 41/42/12
f 29/29/13 45/46/13 46/47/13 2/2/13
f 28/28/13 47/48/13 45/46/13 29/29/13
f 23/23/14 22/22/15 36/36/15 35/35/16
f 48/49/17 39/39/17 40/41/17 49/50/17
f 50/51/18 48/49/18 49/52/18
f 48/49/19 50/51/19 51/53/19 52/54/19
f 25/25/20 52/54/20 51/53/20 26/26/20
f 9/9/13 53/55/13 54/56/13 11/11/13
f 7/7/13 55/57/13 53/55/13 9/9/13
f 6/6/13 56/58/13 55/57/13 7/7/13
f 5/59/21 57/60/21 56/58/21 6/6/21
f 2/2/13 46/47/13 58/61/13 3/3/13
f 34/34/12 33/33/12 59/62/12 60/63/12
f 61/64/22 62/65/22 44/66/22 43/67/22
f 3/3/22 58/61/22 63/68/22 4/69/22
f 4/69/22 63/68/22 64/70/22 65/71/22
f 65/71/22 64/70/22 66/72/22 67/73/22
f 68/74/23 67/75/23 66/72/23 69/76/23
f 68/77/18 69/76/18 70/78/18
f 69/76/24 71/79/24 72/80/24 70/78/24
f 73/81/25 23/23/14 74/82/26 75/83/25
f 23/23/27 73/84/27 76/85/27
f 75/86/22 74/82/22 77/87/22 78/88/22
f 78/88/22 77/87/22 62/65/22 61/64/22
f 60/63/21 59/62/21 79/89/21 80/90/21
f 80/90/21 79/89/21 81/91/21 82/92/21
f 82/92/21 81/91/21 83/93/21 84/94/21
f 20/95/10 21/20/9 85/96/21 86/97/21
f 86/97/21 85/96/21 57/60/21 5/59/21
f 37/98/1 87/99/1 88/100/1 41/101/1
f 87/99/1 89/102/1 90/103/1 88/100/1
f 89/102/1 91/104/1 73/81/1 90/103/1
f 92/105/1 18/19/7 19/18/6
f 23/23/28 76/85/28 93/106/28 94/107/28
f 94/107/29 93/106/29 72/80/29 71/79/29
f 54/108/30 17/17/31 12/109/32 11/11/32
f 95/110/1 16/16/4 18/111/7
f 96/112/1 97/113/1 98/114/1 68/74/1
f 97/113/1 30/30/1 1/1/1 98/114/1
f 36/36/1 22/22/1 87/99/1 37/98/1
f 22/22/1 99/115/1 89/102/1 87/99/1
f 99/115/1 100/116/1 91/104/1 89/102/1
f 100/116/1 101/117/1 76/118/1 91/104/1
f 13/13/1 102/119/1 103/120/1
f 12/109/27 17/17/27 104/121/27
f 105/122/1 106/123/1 103/120/1
f 107/124/1 108/125/1 96/112/1 70/126/1
f 108/125/1 109/127/1 97/113/1 96/112/1
f 109/127/1 27/27/1 30/30/1 97/113/1
f 49/50/1 110/128/1 50/129/1
f 24/130/1 111/131/1 100/116/1 99/115/1
f 111/131/1 112/132/1 101/117/1 100/116/1
f 112/132/1 113/133/1 93/106/1 101/117/1
f 113/133/1 114/134/1 72/80/1 93/106/1
f 114/134/1 115/135/1 107/124/1 72/80/1
f 115/135/1 116/136/1 108/125/1 107/124/1
f 116/136/1 117/137/1 109/127/1 108/125/1
f 50/129/1 118/138/1 51/53/1
f 24/130/1 26/26/1 111/131/1
f 26/26/1 119/139/1 112/132/1 111/131/1
f 119/139/1 120/140/1 113/133/1 112/132/1
f 120/140/1 121/141/1 114/134/1 113/133/1
f 121/141/1 122/142/1 115/135/1 114/134/1
f 122/142/1 123/143/1 116/136/1 115/135/1
f 22/22/1 24/130/1 99/115/1
f 17/17/33 124/144/33 125/145/33 104/121/33
f 51/53/1 126/146/1 119/139/1 26/26/1
f 126/146/1 127/147/1 120/140/1 119/139/1
f 127/147/1 128/148/1 121/141/1 120/140/1
f 128/148/1 129/149/1 122/142/1 121/141/1
f 129/149/1 125/145/1 123/143/1 122/142/1
f 47/150/34 28/28/34 27/151/34 69/76/34
f 69/76/35 27/151/35 117/152/35
f 73/81/1 91/104/1 76/118/1
f 118/138/1 130/153/1 126/146/1 51/53/1
f 130/153/1 131/154/1 127/147/1 126/146/1
f 131/154/1 132/155/1 128/148/1 127/147/1
f 132/155/1 133/156/1 129/149/1 128/148/1
f 133/156/1 134/157/1 125/145/1 129/149/1
f 76/118/1 101/117/1 93/106/1
f 69/76/36 117/152/36 123/143/36 135/158/36
f 70/126/1 72/80/1 107/124/1
f 110/128/1 136/159/1 118/138/1 50/129/1
f 136/159/1 102/119/1 130/153/1 118/138/1
f 102/119/1 13/13/1 131/154/1 130/153/1
f 13/13/1 16/16/4 132/155/1 131/154/1
f 16/16/4 95/110/1 133/156/1 132/155/1
f 95/110/1 137/160/1 134/157/1 133/156/1
f 137/160/1 138/161/1 104/162/1 134/157/1
f 70/126/1 96/112/1 68/74/1
f 31/40/1 139/163/1 49/50/1 40/41/1
f 139/163/1 140/164/1 110/128/1 49/50/1
f 140/164/1 105/122/1 136/159/1 110/128/1
f 105/122/1 103/165/1 102/119/1 136/159/1
f 27/151/1 109/127/1 117/152/1
f 116/136/1 123/143/1 117/152/1
f 18/111/7 92/105/1 137/160/1 95/110/1
f 92/105/1 141/166/1 138/161/1 137/160/1
f 141/166/1 10/10/1 12/12/1 138/161/1
f 34/167/1 142/168/1 139/163/1 31/40/1
f 142/168/1 143/169/1 140/164/1 139/163/1
f 143/169/1 106/123/1 105/122/1 140/164/1
f 12/109/1 104/121/1 138/161/1
f 134/157/1 104/121/1 125/145/1
f 19/18/6 144/170/1 141/166/1 92/105/1
f 144/170/1 8/8/1 10/10/1 141/166/1
f 60/171/1 80/172/1 142/168/1 34/167/1
f 80/172/1 82/173/1 143/169/1 142/168/1
f 82/173/1 84/174/1 106/123/1 143/169/1
f 83/175/37 48/49/37 106/176/37 84/174/37
f 106/176/35 48/49/35 103/120/35
f 48/49/38 14/14/38 13/13/38 103/120/38
f 17/17/39 18/19/7 16/16/4 15/15/3
f 20/21/10 86/177/1 144/170/1 19/18/6
f 86/177/1 5/5/1 8/8/1 144/170/1
f 41/101/1 88/100/1 61/178/1 43/179/1
f 88/100/1 90/103/1 78/180/1 61/178/1
f 90/103/1 73/81/1 75/83/1 78/180/1
f 135/158/40 123/143/40 125/145/40 124/144/40
f 54/108/30 56/181/41 21/182/41 17/17/31
f 39/39/42 48/49/42 83/175/42 59/183/42
f 35/35/16 44/184/43 74/185/26 23/23/14
f 47/150/44 69/76/44 66/186/44 58/187/44
f 68/74/1 98/114/1 65/188/1 67/75/1
f 98/114/1 1/1/1 4/4/1 65/188/1
f 124/144/45 17/17/39 15/15/3 145/189/45
f 145/189/45 15/15/45 14/14/45 146/190/45
f 146/190/45 14/14/45 48/49/45 52/54/45
f 135/158/45 124/144/45 145/189/45 147/191/45
f 147/191/45 145/189/45 146/190/45 148/192/45
f 148/192/45 146/190/45 52/54/45 25/25/45
f 69/76/45 135/158/45 147/191/45 71/79/45
f 71/79/45 147/191/45 148/192/45 94/107/45
f 94/107/45 148/192/45 25/25/45 23/23/45
